<svg xmlns="http://www.w3.org/2000/svg" viewBox="0 0 800 600" width="800" height="600">
  <defs>
    <linearGradient id="bg" x1="0" y1="0" x2="0.4" y2="1">
      <stop offset="0%" stop-color="rgba(245,158,11,1)" stop-opacity="0.08"/>
      <stop offset="35%" stop-color="#0A2540" stop-opacity="1"/>
      <stop offset="100%" stop-color="#1a1a14" stop-opacity="0.4"/>
    </linearGradient>
    <pattern id="hatch" patternUnits="userSpaceOnUse" width="5" height="5" patternTransform="rotate(45)">
      <line x1="0" y1="0" x2="0" y2="5" stroke="#6B5540" stroke-width="0.5" opacity="0.5"/>
    </pattern>
    <pattern id="crosshatch" patternUnits="userSpaceOnUse" width="5" height="5">
      <line x1="0" y1="0" x2="5" y2="5" stroke="#6B5540" stroke-width="0.3" opacity="0.2"/>
      <line x1="5" y1="0" x2="0" y2="5" stroke="#6B5540" stroke-width="0.3" opacity="0.15"/>
    </pattern>
    <filter id="glow">
      <feGaussianBlur stdDeviation="2" result="blur"/>
      <feMerge><feMergeNode in="blur"/><feMergeNode in="SourceGraphic"/></feMerge>
    </filter>
  </defs>
  <rect width="800" height="600" fill="#0A2540"/>
  <rect width="800" height="600" fill="url(#bg)"/>
  <rect width="800" height="600" fill="url(#crosshatch)" opacity="0.6"/>
  <!-- Brain lateral outline -->
  <path d="M400 75 C270 75 145 120 105 210 C65 300 78 380 110 440 C140 490 195 525 265 545
           C225 558 200 580 218 595 C238 608 280 600 320 588
           C350 596 390 600 425 596
           C465 600 505 605 538 592
           C568 602 598 595 610 575
           C628 555 612 528 580 518
           C632 488 672 438 695 375
           C718 312 718 248 695 195
           C672 142 608 100 528 85 C472 75 435 73 400 75Z"
        stroke="#4A3828" stroke-width="2.8" fill="url(#hatch)" fill-opacity="0.2"/>

  <!-- Central (Rolandic) fissure — PROMINENT -->
  <path d="M428 85 C422 130 405 185 385 250 C370 305 360 350 355 395"
        stroke="#4A3828" stroke-width="2" fill="none"/>

  <!-- Lateral (Sylvian) fissure — PROMINENT -->
  <path d="M255 360 C300 348 355 328 410 318 C465 308 515 302 555 308"
        stroke="#4A3828" stroke-width="2" fill="none"/>

  <!-- Parieto-occipital sulcus -->
  <path d="M570 108 C558 165 538 230 518 295"
        stroke="#6B5540" stroke-width="1.3" fill="none" opacity="0.7"/>

  <!-- FRONTAL LOBE sulci -->
  <path d="M190 190 C235 198 280 212 318 232" stroke="#6B5540" stroke-width="1" fill="none" opacity="0.6"/>
  <path d="M172 255 C218 252 265 262 310 282" stroke="#6B5540" stroke-width="1" fill="none" opacity="0.6"/>
  <path d="M155 320 C200 312 245 318 288 332" stroke="#6B5540" stroke-width="1" fill="none" opacity="0.6"/>
  <path d="M248 135 C268 172 278 210 272 248" stroke="#6B5540" stroke-width="0.8" fill="none" opacity="0.5"/>
  <path d="M318 115 C330 155 335 200 322 240" stroke="#6B5540" stroke-width="0.8" fill="none" opacity="0.5"/>
  <path d="M370 95 C372 135 370 175 362 215" stroke="#6B5540" stroke-width="0.7" fill="none" opacity="0.45"/>

  <!-- PARIETAL LOBE sulci -->
  <path d="M448 115 C455 162 450 210 438 255" stroke="#6B5540" stroke-width="0.8" fill="none" opacity="0.5"/>
  <path d="M490 128 C495 172 488 218 475 262" stroke="#6B5540" stroke-width="0.8" fill="none" opacity="0.5"/>
  <path d="M445 175 C478 185 510 188 542 182" stroke="#6B5540" stroke-width="0.8" fill="none" opacity="0.5"/>
  <path d="M445 225 C478 232 510 235 540 230" stroke="#6B5540" stroke-width="0.7" fill="none" opacity="0.45"/>

  <!-- TEMPORAL LOBE sulci -->
  <path d="M275 390 C325 382 375 375 420 372 C465 370 510 374 548 385" stroke="#6B5540" stroke-width="0.9" fill="none" opacity="0.5"/>
  <path d="M258 438 C305 428 358 422 412 418 C462 416 508 420 548 432" stroke="#6B5540" stroke-width="0.9" fill="none" opacity="0.5"/>
  <path d="M248 488 C298 478 350 472 408 468 C458 466 508 472 548 485" stroke="#6B5540" stroke-width="0.8" fill="none" opacity="0.45"/>

  <!-- OCCIPITAL LOBE sulci -->
  <path d="M592 188 C612 232 622 278 612 322" stroke="#6B5540" stroke-width="0.8" fill="none" opacity="0.5"/>
  <path d="M635 228 C648 272 652 318 638 362" stroke="#6B5540" stroke-width="0.8" fill="none" opacity="0.5"/>

  <!-- CEREBELLUM -->
  <path d="M572 458 C615 445 658 458 678 480 C698 505 685 540 662 552 C642 562 612 562 592 552 C572 542 565 518 565 498 C565 478 568 465 572 458Z"
        stroke="#4A3828" stroke-width="2" fill="url(#hatch)" fill-opacity="0.3"/>
  <!-- Folia -->
  <path d="M575 470 C605 464 638 468 668 478" stroke="#6B5540" stroke-width="0.8" fill="none" opacity="0.5"/>
  <path d="M570 488 C602 482 635 486 665 495" stroke="#6B5540" stroke-width="0.8" fill="none" opacity="0.5"/>
  <path d="M572 505 C602 500 632 503 658 512" stroke="#6B5540" stroke-width="0.7" fill="none" opacity="0.45"/>
  <path d="M575 522 C600 518 628 520 650 528" stroke="#6B5540" stroke-width="0.6" fill="none" opacity="0.4"/>
  <path d="M580 538 C598 535 618 536 638 542" stroke="#6B5540" stroke-width="0.5" fill="none" opacity="0.35"/>

  <!-- Brainstem -->
  <path d="M545 500 L532 548 L522 588" stroke="#4A3828" stroke-width="1.8" fill="none"/>
  <path d="M560 495 L568 548 L575 578" stroke="#6B5540" stroke-width="1.2" fill="none" opacity="0.5"/>

  <!-- LOBE LABELS (bold, positioned inside regions) -->
  <text x="215" y="275" font-family="serif" font-size="16" fill="#6B5540" opacity="0.75" font-weight="bold" font-style="italic">Frontal</text>
  <text x="450" y="218" font-family="serif" font-size="16" fill="#6B5540" opacity="0.75" font-weight="bold" font-style="italic">Parietal</text>
  <text x="600" y="282" font-family="serif" font-size="15" fill="#6B5540" opacity="0.75" font-weight="bold" font-style="italic">Occipital</text>
  <text x="335" y="448" font-family="serif" font-size="16" fill="#6B5540" opacity="0.75" font-weight="bold" font-style="italic">Temporal</text>

  <!-- Annotation leader lines -->
  <line x1="428" y1="88" x2="520" y2="58" stroke="#8B7355" stroke-width="0.6" opacity="0.5"/>
  <text x="525" y="56" font-family="serif" font-size="12" fill="#8B7355" opacity="0.7" font-style="italic">Central sulcus</text>

  <line x1="410" y1="318" x2="470" y2="345" stroke="#8B7355" stroke-width="0.6" opacity="0.5"/>
  <text x="475" y="350" font-family="serif" font-size="12" fill="#8B7355" opacity="0.7" font-style="italic">Lateral fissure</text>

  <line x1="635" y1="500" x2="720" y2="510" stroke="#8B7355" stroke-width="0.6" opacity="0.5"/>
  <text x="725" y="508" font-family="serif" font-size="12" fill="#8B7355" opacity="0.7" font-style="italic">Cerebellum</text>

  <line x1="540" y1="550" x2="610" y2="572" stroke="#8B7355" stroke-width="0.5" opacity="0.4"/>
  <text x="615" y="575" font-family="serif" font-size="11" fill="#8B7355" opacity="0.6" font-style="italic">Brainstem</text>

  <!-- Brodmann area markers -->
  <circle cx="250" cy="232" r="4" fill="#6B5540" opacity="0.2"/>
  <text x="258" y="236" font-family="monospace" font-size="8" fill="#6B5540" opacity="0.4" font-weight="bold">4</text>
  <circle cx="465" cy="188" r="4" fill="#6B5540" opacity="0.2"/>
  <text x="473" y="192" font-family="monospace" font-size="7" fill="#6B5540" opacity="0.4" font-weight="bold">3,1,2</text>
  <circle cx="630" cy="262" r="4" fill="#6B5540" opacity="0.2"/>
  <text x="638" y="266" font-family="monospace" font-size="8" fill="#6B5540" opacity="0.4" font-weight="bold">17</text>
  <circle cx="360" cy="418" r="4" fill="#6B5540" opacity="0.2"/>
  <text x="368" y="422" font-family="monospace" font-size="8" fill="#6B5540" opacity="0.4" font-weight="bold">22</text>
  <circle cx="180" cy="310" r="4" fill="#6B5540" opacity="0.2"/>
  <text x="188" y="314" font-family="monospace" font-size="8" fill="#6B5540" opacity="0.4" font-weight="bold">44</text>

  <!-- Data nodes -->
  <text x="40" y="570" font-family="monospace" font-size="9" fill="#A89878" opacity="0.5">[198 flashcards]</text>
  <text x="40" y="585" font-family="monospace" font-size="9" fill="#A89878" opacity="0.5">[11 body systems catalogued]</text>
  <text x="560" y="585" font-family="serif" font-size="10" fill="#A89878" opacity="0.4" font-style="italic">systematic verification pattern</text>

  <!-- Dimension -->
  <line x1="88" y1="78" x2="88" y2="588" stroke="#A89878" stroke-width="0.4" opacity="0.2"/>
  <line x1="83" y1="78" x2="93" y2="78" stroke="#A89878" stroke-width="0.5" opacity="0.25"/>
  <line x1="83" y1="588" x2="93" y2="588" stroke="#A89878" stroke-width="0.5" opacity="0.25"/>

</svg>